<svg width="30" height="30" viewBox="0 0 30 30" fill="none" xmlns="http://www.w3.org/2000/svg">
<g clip-path="url(#clip0_134_442)">
<path d="M15 29.5312C6.97266 29.5312 0.46875 23.0273 0.46875 15C0.46875 6.97266 6.97266 0.46875 15 0.46875C23.0273 0.46875 29.5312 6.97266 29.5312 15C29.5312 23.0273 23.0273 29.5312 15 29.5312ZM21.7969 12.4219H15V8.26758C15 7.64063 14.2383 7.32422 13.7988 7.76953L7.10156 14.502C6.82617 14.7773 6.82617 15.2168 7.10156 15.4922L13.7988 22.2246C14.2441 22.6699 15 22.3535 15 21.7266V17.5781H21.7969C22.1836 17.5781 22.5 17.2617 22.5 16.875V13.125C22.5 12.7383 22.1836 12.4219 21.7969 12.4219Z" fill="#E75600"/>
</g>
<defs>
<clipPath id="clip0_134_442">
<rect width="30" height="30" fill="white"/>
</clipPath>
</defs>
</svg>
