<svg width="44" height="44" viewBox="0 0 44 44" fill="none" xmlns="http://www.w3.org/2000/svg">
<g filter="url(#filter0_d_244_331)">
<circle cx="22" cy="18" r="18" fill="white"/>
</g>
<g clip-path="url(#clip0_244_331)">
<path d="M22 32.5312C13.9727 32.5312 7.46875 26.0273 7.46875 18C7.46875 9.97266 13.9727 3.46875 22 3.46875C30.0273 3.46875 36.5312 9.97266 36.5312 18C36.5312 26.0273 30.0273 32.5312 22 32.5312ZM28.7969 15.4219H22V11.2676C22 10.6406 21.2383 10.3242 20.7988 10.7695L14.1016 17.502C13.8262 17.7773 13.8262 18.2168 14.1016 18.4922L20.7988 25.2246C21.2441 25.6699 22 25.3535 22 24.7266V20.5781H28.7969C29.1836 20.5781 29.5 20.2617 29.5 19.875V16.125C29.5 15.7383 29.1836 15.4219 28.7969 15.4219Z" fill="#E75600"/>
</g>
<defs>
<filter id="filter0_d_244_331" x="0" y="0" width="44" height="44" filterUnits="userSpaceOnUse" color-interpolation-filters="sRGB">
<feFlood flood-opacity="0" result="BackgroundImageFix"/>
<feColorMatrix in="SourceAlpha" type="matrix" values="0 0 0 0 0 0 0 0 0 0 0 0 0 0 0 0 0 0 127 0" result="hardAlpha"/>
<feOffset dy="4"/>
<feGaussianBlur stdDeviation="2"/>
<feComposite in2="hardAlpha" operator="out"/>
<feColorMatrix type="matrix" values="0 0 0 0 0 0 0 0 0 0 0 0 0 0 0 0 0 0 0.25 0"/>
<feBlend mode="normal" in2="BackgroundImageFix" result="effect1_dropShadow_244_331"/>
<feBlend mode="normal" in="SourceGraphic" in2="effect1_dropShadow_244_331" result="shape"/>
</filter>
<clipPath id="clip0_244_331">
<rect width="30" height="30" fill="white" transform="translate(7 3)"/>
</clipPath>
</defs>
</svg>
