<svg width="36" height="36" viewBox="0 0 36 36" fill="none" xmlns="http://www.w3.org/2000/svg">
<g clip-path="url(#clip0_134_413)">
<path d="M12.375 15.1876H23.625C24.2466 15.1876 24.75 14.6842 24.75 14.0626V12.9376C24.75 12.316 24.2466 11.8126 23.625 11.8126H12.375C11.7534 11.8126 11.25 12.316 11.25 12.9376V14.0626C11.25 14.6842 11.7534 15.1876 12.375 15.1876ZM11.25 20.8126C11.25 21.4342 11.7534 21.9376 12.375 21.9376H23.625C24.2466 21.9376 24.75 21.4342 24.75 20.8126V19.6876C24.75 19.066 24.2466 18.5626 23.625 18.5626H12.375C11.7534 18.5626 11.25 19.066 11.25 19.6876V20.8126ZM18 29.3296C16.8455 29.3296 15.6909 28.9738 14.7052 28.2615L0 17.6387V32.6251C0 34.4891 1.51102 36.0001 3.375 36.0001H32.625C34.489 36.0001 36 34.4891 36 32.6251V17.6387L21.2948 28.2615C20.3091 28.9731 19.1545 29.3296 18 29.3296ZM34.707 11.4575C34.0847 10.9695 33.4948 10.5104 32.625 9.85369V6.7501C32.625 4.88611 31.114 3.3751 29.25 3.3751H23.7973C23.5835 3.22041 23.3845 3.07556 23.1616 2.91385C21.9797 2.05111 19.6313 -0.0245145 18 9.48698e-05C16.3687 -0.0245145 14.021 2.05111 12.8384 2.91385C12.6155 3.07556 12.4165 3.22041 12.2027 3.3751H6.75C4.88602 3.3751 3.375 4.88611 3.375 6.7501V9.85369C2.50523 10.5097 1.91531 10.9695 1.29305 11.4575C0.890267 11.7732 0.564549 12.1763 0.340533 12.6364C0.116517 13.0965 6.93145e-05 13.6015 0 14.1132L0 14.862L6.75 19.7382V6.7501H29.25V19.7382L36 14.862V14.1132C36 13.0768 35.5233 12.0974 34.707 11.4575Z" fill="black"/>
</g>
<defs>
<clipPath id="clip0_134_413">
<rect width="36" height="36" fill="white"/>
</clipPath>
</defs>
</svg>
