<svg width="56" height="56" viewBox="0 0 56 56" fill="none" xmlns="http://www.w3.org/2000/svg">
<g filter="url(#filter0_d_244_240)">
<circle cx="28" cy="24" r="24" fill="white"/>
</g>
<g clip-path="url(#clip0_244_240)">
<path d="M45.1562 24.4078C45.1562 34.357 38.343 41.4375 28.2812 41.4375C18.6344 41.4375 10.8438 33.6469 10.8438 24C10.8438 14.3531 18.6344 6.5625 28.2812 6.5625C32.9781 6.5625 36.9297 8.28516 39.9742 11.1258L35.2281 15.6891C29.0195 9.69844 17.4742 14.1984 17.4742 24C17.4742 30.082 22.3328 35.0109 28.2812 35.0109C35.1859 35.0109 37.7734 30.0609 38.1812 27.4945H28.2812V21.4969H44.882C45.0438 22.3898 45.1562 23.2477 45.1562 24.4078Z" fill="black"/>
</g>
<defs>
<filter id="filter0_d_244_240" x="0" y="0" width="56" height="56" filterUnits="userSpaceOnUse" color-interpolation-filters="sRGB">
<feFlood flood-opacity="0" result="BackgroundImageFix"/>
<feColorMatrix in="SourceAlpha" type="matrix" values="0 0 0 0 0 0 0 0 0 0 0 0 0 0 0 0 0 0 127 0" result="hardAlpha"/>
<feOffset dy="4"/>
<feGaussianBlur stdDeviation="2"/>
<feComposite in2="hardAlpha" operator="out"/>
<feColorMatrix type="matrix" values="0 0 0 0 0 0 0 0 0 0 0 0 0 0 0 0 0 0 0.25 0"/>
<feBlend mode="normal" in2="BackgroundImageFix" result="effect1_dropShadow_244_240"/>
<feBlend mode="normal" in="SourceGraphic" in2="effect1_dropShadow_244_240" result="shape"/>
</filter>
<clipPath id="clip0_244_240">
<rect width="36" height="36" fill="white" transform="translate(10 6)"/>
</clipPath>
</defs>
</svg>
